<svg id="visual" viewBox="0 0 960 540" width="960" height="540" xmlns="http://www.w3.org/2000/svg" xmlns:xlink="http://www.w3.org/1999/xlink" version="1.1"><rect x="0" y="0" width="960" height="540" fill="#001220"></rect><defs><linearGradient id="grad1_0" x1="43.8%" y1="100%" x2="100%" y2="0%"><stop offset="14.444444444444446%" stop-color="#001220" stop-opacity="1"></stop><stop offset="85.55555555555554%" stop-color="#001220" stop-opacity="1"></stop></linearGradient></defs><defs><linearGradient id="grad2_0" x1="0%" y1="100%" x2="56.3%" y2="0%"><stop offset="14.444444444444446%" stop-color="#001220" stop-opacity="1"></stop><stop offset="85.55555555555554%" stop-color="#001220" stop-opacity="1"></stop></linearGradient></defs><g transform="translate(960, 540)"><path d="M-162 0C-161.7 -12.9 -161.5 -25.9 -154 -35.2C-146.6 -44.4 -131.9 -50.1 -127.9 -61.6C-123.9 -73.2 -130.6 -90.6 -126.7 -101C-122.7 -111.4 -108.3 -114.6 -97.3 -122C-86.2 -129.3 -78.6 -140.7 -67.3 -139.7C-55.9 -138.6 -40.8 -125.1 -28.9 -126.7C-17.1 -128.4 -8.5 -145.2 0 -162L0 0Z" fill="#FBAE3C"></path></g><g transform="translate(0, 0)"><path d="M162 0C162.3 12.5 162.7 24.9 157.9 36C153.2 47.2 143.3 56.9 133.3 64.2C123.4 71.5 113.2 76.3 108.7 86.7C104.1 97 105.2 112.8 99.8 125.1C94.3 137.4 82.4 146.2 69 143.3C55.6 140.3 40.7 125.6 28.9 126.7C17.2 127.9 8.6 145 0 162L0 0Z" fill="#FBAE3C"></path></g></svg>